<?xml version="1.0" encoding="utf-8"?>
<!-- Generator: Adobe Illustrator 28.0.0, SVG Export Plug-In . SVG Version: 6.00 Build 0)  -->
<svg version="1.0" id="katman_1" xmlns="http://www.w3.org/2000/svg" xmlns:xlink="http://www.w3.org/1999/xlink" x="0px" y="0px"
	 viewBox="0 0 754.56 803.92" style="enable-background:new 0 0 754.56 803.92;" xml:space="preserve">
<style type="text/css">
	.st0{fill:#f2ce83;}
	.st1{fill:#000000;}
	.st2{fill:#c6915e;}
	.st3{fill:#000000;}
</style>
<path class="st0" d="M522.55,192.02l-9.67,5.97c-0.75,0.47-0.7,0.81,0.15,1.04c13.49,3.55,26.29,9.24,38.4,17.09
	c7.63,4.94,13.67,9.2,18.12,12.77c13.29,10.67,26.07,23.05,38.33,37.14c7.85,9.27,15.63,18.58,23.34,27.94
	c13.49,16.36,28.8,32.05,45.91,47.08c1.69,1.49,3.13,3.42,5.03,4.62c0.42,0.27,0.67,0.65,0.76,1.15c-0.93,1.19-1.54,1.91-1.85,2.18
	c-5.74,4.89-10.26,8.95-13.57,12.16c-9.29,9.01-17,19.09-23.13,30.26c-6.53,10.67-11.74,21.91-15.63,33.7
	c-0.18,0.56,0.06,1.17,0.58,1.45c8.18,4.31,16.78,8.91,25.81,10.27c1.55,0.24,1.66,0.77,0.32,1.58c-0.93,0.57-1.18,1.59-1.04,2.61
	c3.42,25.24,29.09,36.71,51.31,26.63c6.88-3.13,12.54-7.46,16.97-13.01c7.43-7.5,11.3-19.22,11.98-29.54
	c0.9-13.67-2.24-26.85-11.13-36.99c-12.49-14.25-23.21-24.8-40.05-41.31c1.47-1.75,2.74-2.87,3.79-3.37
	c4.67-2.21,9.03-4.86,13.08-7.94c11.14,11.17,22.38,22.62,33.73,34.35c13.66,14.11,20.48,31.18,20.47,51.2
	c-0.01,12.39-3.66,26.58-10.35,37.2c-11.01,17.48-28.54,29.43-49.03,31.95c-17.84,2.21-35.28-3.76-47.01-17.2
	c-4.45-5.1-7.6-11.16-11.91-16.56c-4.74-5.95-12.8-9.18-20.05-11.8c-18.59-6.72-36.39-12.58-53.4-17.57c-0.5-0.15-1-0.16-1.51-0.04
	c-27.44,6.44-53.76,5.52-79.39-4.86c-31.08-12.6-52.56-38.43-61.67-70.58c-4.89-17.28-6.4-34.83-4.53-52.66
	c0.01-0.12-0.01-0.13-0.06-0.02c-15.38,30.47-17.45,68.26-0.64,99.09c11.03,20.21,27.69,34.66,49.99,43.33
	c0.61,0.23,1.02,0.66,1.25,1.27c2.17,5.9,4.11,11.58,5.83,17.05c9.39,29.84,13.97,60.71,13.74,92.61
	c-0.06,8.66-0.49,18.3-1.29,28.93c-0.03,0.28-0.18,0.42-0.46,0.42c-37.63,0.44-75.55-0.52-112.35-5.59
	c-21.44-2.96-45.34-7.5-71.71-13.62c-39.33-9.12-77.7-22.34-115.11-39.66c-36.71-17-69.69-37.99-99.3-65.19
	c-21.78-20.01-40.94-44.22-52.87-71.14C20.27,358.29,18.59,328,26.97,297.8c8.04-28.95,21.9-54.17,41.58-75.68
	c0.77-0.85,0.87-0.78,0.29,0.21c-2.45,4.19-4.64,8.5-6.58,12.91c-6.91,15.72-11.6,31.79-14.06,48.2
	c-5.03,33.63,0.58,65.38,16.84,95.27c12.81,23.54,31.75,44.48,52.61,61.56c11.62,9.51,25.01,18.38,40.16,26.59
	c11.37,5.97,23.73,11.16,37.09,15.58c14.24,4.7,25.92,8.2,35.04,10.49c1.08,0.27,2.21,0.12,3.11,0.65c1.49,0.88,3.41,0.85,5.08,0.88
	c0.33,0,0.63,0.16,0.81,0.43c0.3,0.43,0.72,0.65,1.25,0.66c0.89,0.02,1.01-0.27,0.34-0.87c-1.11-0.99-2.02-2.16-2.73-3.53
	c-0.52-1.01-1.24-2.02-2.15-3.05c-1.45-1.64-3.26-3.94-5.43-6.89c-3.67-5.01-10.44-12.39-20.31-22.16
	c-4.45-4.41-10.35-9.27-17.68-14.6l7.11-5.6c0.26-0.21,0.56-0.33,0.89-0.36c0.52-0.06,1.05-0.04,1.58,0.06
	c37.58,7.33,73.96,24.47,104.34,47.24c26.28,19.7,48.85,42.95,67.71,69.75c2.7,3.83,4.9,7.75,7.04,11.83
	c0.05,0.09,0.13,0.12,0.23,0.07l0,0c0.07-0.03,0.1-0.08,0.07-0.15c-2.35-7.08-4.91-14.04-7.66-20.89
	c-8.61-21.41-20.59-40.86-35.93-58.33c-12.19-13.88-25.6-26.4-40.24-37.57c0.13-0.62-0.1-1.01-0.71-1.18
	c-0.54-0.15-0.54-0.28,0.01-0.4c0.09-0.02,0.19-0.05,0.28-0.08c0.25-0.08,0.52-0.06,0.8,0.06c2.59,1.12,4.98,2.51,7.16,4.17
	c0.17,0.5,0.53,0.75,1.06,0.76c0.31,0.01,0.58,0.12,0.81,0.35l3.1,3.04c0.23,0.23,0.41,0.5,0.54,0.81c0.25,0.61,0.71,0.84,1.39,0.69
	c0.43-0.09,0.71,0.08,0.84,0.5c0.29,0.93,0.87,1.61,1.74,2.02c0.29,0.14,0.49,0.43,0.52,0.76c0.03,0.46,0.27,0.6,0.7,0.42
	c0.33-0.13,0.44-0.55,0.22-0.82c-0.95-1.19-1.69-2.51-2.24-3.96c-0.59-1.57-1.24-3.07-1.97-4.5c-3.84-7.6-6.51-15.16-8.01-22.69
	c-3.15-15.81-2.33-32.15,2.46-49.01c4.92-17.33,11.79-32.3,20.38-48.53c8.62-16.35,18.19-30.55,28.6-44.79
	c7.19-9.85,18.21-23.08,33.05-39.69c3.65-4.09,8.06-8.53,13.22-13.32c3.44-3.19,6.92-6.53,10.45-10.02c3.34-3.3,6.87-6.48,10.6-9.53
	c0.17-0.14,0.15-0.41-0.04-0.53c-0.14-0.07-0.27-0.05-0.39,0.08l19.23-12.34c0.31-0.19,0.4-0.46,0.28-0.8
	c-1.8-5.03-3.56-10.16-4.77-15.42c-2.67-11.59-2.93-23.98-0.8-37.17c2.37-14.67,6.73-28.58,13.07-41.75
	C467.4,69.3,497.9,34.77,527.29,3.47c2.34-2.48,6.02-5.17,9.01-2.1c1.12,1.14,1.72,2.58,1.79,4.31c0.48,11.12,0.32,22.62-0.49,34.49
	c-2.05,30.43-7.05,59.94-14.99,88.54c-0.11,0.39,0,0.47,0.33,0.22c18.56-14.03,34.64-26.66,48.25-37.87
	c18.2-14.99,35.25-31.49,52.13-47.91c1.41-1.37,3.84-3.67,5.82-3.29c4.2,0.8,2.43,7.28,1.63,9.98
	c-8.3,28.33-21.16,54.07-38.59,77.24c-12.73,16.91-26.98,31.84-42.75,44.78C540.93,178.82,531.7,185.36,522.55,192.02z
	 M492.77,76.46c-14.87,21.76-26.38,47.59-30.31,73.99c-3.93,26.41,0.44,51.55,13.11,75.42c2.54,4.77,5.53,10.03,8.97,15.77
	c0.68,1.15,0.84,1.08,0.47-0.2c-4.02-14.01-5-27.7-5.01-42.1c-0.02-26.69,2.8-53.83,8.45-81.42c3.76-18.38,7.78-36.5,14.1-54.31
	c0.6-1.69,0.38-1.8-0.65-0.33C498.73,67.81,495.68,72.2,492.77,76.46z M571.69,284.91c6.04,0.65,12.55,3.37,17.6,6.7
	c9.1,6,17.16,12.75,24.19,20.25c0.91,0.97,0.98,0.9,0.23-0.19c-5.89-8.62-12.29-17.54-19.18-26.76
	c-7.13-9.54-16.79-16.87-29.23-16.7c-3.07,0.04-6.04,0.29-8.91,0.76c-6.06,0.99-11.65,1.78-16.78,2.36
	c-8.61,0.97-19.19,0.37-25.87-4.07c-0.13-0.09-0.24-0.06-0.32,0.07h-0.01c-0.06,0.1-0.04,0.18,0.05,0.25
	c2.91,1.97,5.99,4.01,9.24,6.11c10.31,6.68,22.3,10.04,34.64,10.33C562.56,284.14,567.34,284.44,571.69,284.91z"/>
<path class="st1" d="M462.46,150.45c3.93-26.4,15.44-52.23,30.31-73.99c2.91-4.26,5.96-8.65,9.13-13.18
	c1.03-1.47,1.25-1.36,0.65,0.33c-6.32,17.81-10.34,35.93-14.1,54.31c-5.65,27.59-8.47,54.73-8.45,81.42
	c0.01,14.4,0.99,28.09,5.01,42.1c0.37,1.28,0.21,1.35-0.47,0.2c-3.44-5.74-6.43-11-8.97-15.77
	C462.9,202,458.53,176.86,462.46,150.45z"/>
<path class="st0" d="M417.38,171.93c0.55-0.25,1.2,0.09,1.31,0.69c1.4,7.84,2.93,15.23,4.59,22.17c0.29,1.21-0.19,1.84-1.42,1.89
	c-0.21,0.01-0.4,0.06-0.58,0.17c-15.32,9.01-28.11,18.03-42.88,29.19c-20.02,15.12-38.53,32.39-55.86,50.85
	c-11.98,12.75-22.74,25.1-32.29,37.03c-15.96,19.96-30.72,40.45-44.29,61.46c-0.54,0.83-0.68,0.77-0.42-0.19
	c2.11-7.81,4.43-15.84,6.98-24.07c2.19-7.08,5.32-15.14,9.38-24.17c5.96-13.26,13.74-26.86,23.34-40.79
	c28.52-41.39,64.8-75.37,108.83-101.94C401.6,179.68,409.37,175.58,417.38,171.93z"/>
<path class="st2" d="M654.09,287.57c-11.71-13.01-23.41-26.03-35.08-39.08c-7.67-8.58-15.73-16.86-24.1-24.26
	c-11.49-10.15-24.29-18.17-38.38-24.05c-9.89-4.13-21.22-6.85-33.98-8.16l-9.67,5.97c-0.75,0.47-0.7,0.81,0.15,1.04
	c13.49,3.55,26.29,9.24,38.4,17.09c7.63,4.94,13.67,9.2,18.12,12.77c13.29,10.67,26.07,23.05,38.33,37.14
	c7.85,9.27,15.63,18.58,23.34,27.94c13.49,16.36,28.8,32.05,45.91,47.08c1.69,1.49,3.13,3.42,5.03,4.62
	c0.42,0.27,0.67,0.65,0.76,1.15l0.57-0.01c1.47-1.75,2.74-2.87,3.79-3.37c4.67-2.21,9.03-4.86,13.08-7.94
	C680.89,316.08,670.51,305.53,654.09,287.57z"/>
<path class="st1" d="M589.29,291.61c-5.05-3.33-11.56-6.05-17.6-6.7c-4.35-0.47-9.13-0.77-14.35-0.89
	c-12.34-0.29-24.33-3.65-34.64-10.33c-3.25-2.1-6.33-4.14-9.24-6.11c-0.09-0.07-0.11-0.15-0.05-0.25h0.01
	c0.08-0.13,0.19-0.16,0.32-0.07c6.68,4.44,17.26,5.04,25.87,4.07c5.13-0.58,10.72-1.37,16.78-2.36c2.87-0.47,5.84-0.72,8.91-0.76
	c12.44-0.17,22.1,7.16,29.23,16.7c6.89,9.22,13.29,18.14,19.18,26.76c0.75,1.09,0.68,1.16-0.23,0.19
	C606.45,304.36,598.39,297.61,589.29,291.61z"/>
<path class="st2" d="M422.33,215.03c-0.14-0.07-0.27-0.05-0.39,0.08c-0.1,0.01-0.2,0.02-0.29,0.03c-0.18,0.01-0.35,0.07-0.5,0.17
	c-24.88,15.92-48.45,33.75-69.44,54.58c-21.87,21.69-42.13,44.81-60.79,69.36l-55.26,72.51c-0.19,0.26-0.15,0.62,0.1,0.82
	c0.75,0.6,1.58,1.13,2.49,1.59c20.74,10.39,40.45,22.5,59.12,36.33c0.13-0.62-0.1-1.01-0.71-1.18c-0.54-0.15-0.54-0.28,0.01-0.4
	c0.09-0.02,0.19-0.05,0.28-0.08c0.25-0.08,0.52-0.06,0.8,0.06c2.59,1.12,4.98,2.51,7.16,4.17c0.17,0.5,0.53,0.75,1.06,0.76
	c0.31,0.01,0.58,0.12,0.81,0.35l3.1,3.04c0.23,0.23,0.41,0.5,0.54,0.81c0.25,0.61,0.71,0.84,1.39,0.69c0.43-0.09,0.71,0.08,0.84,0.5
	c0.29,0.93,0.87,1.61,1.74,2.02c0.29,0.14,0.49,0.43,0.52,0.76c0.03,0.46,0.27,0.6,0.7,0.42c0.33-0.13,0.44-0.55,0.22-0.82
	c-0.95-1.19-1.69-2.51-2.24-3.96c-0.59-1.57-1.24-3.07-1.97-4.5c-3.84-7.6-6.51-15.16-8.01-22.69c-3.15-15.81-2.33-32.15,2.46-49.01
	c4.92-17.33,11.79-32.3,20.38-48.53c8.62-16.35,18.19-30.55,28.6-44.79c7.19-9.85,18.21-23.08,33.05-39.69
	c3.65-4.09,8.06-8.53,13.22-13.32c3.44-3.19,6.92-6.53,10.45-10.02c3.34-3.3,6.87-6.48,10.6-9.53
	C422.54,215.42,422.52,215.15,422.33,215.03z"/>
<path class="st1" d="M682.92,346.82l0.57-0.01c16.84,16.51,27.56,27.06,40.05,41.31c8.89,10.14,12.03,23.32,11.13,36.99
	c-0.68,10.32-4.55,22.04-11.98,29.54c-8.29,1.75-16.76,2.02-25.41,0.8c-6.82-0.96-12.99-3.38-18.34-7.55
	c-4.39-3.43-8.5-7.31-12.33-11.66c-4.92-5.57-10.6-9.89-16.18-14.64c-4.71-4.01-7.24-9-7.61-14.96c-0.09-1.39,0.14-3.93,0.69-7.61
	c0.37-2.49,0.66-5.02,0.86-7.61c6.13-11.17,13.84-21.25,23.13-30.26c3.31-3.21,7.83-7.27,13.57-12.16
	C681.38,348.73,681.99,348.01,682.92,346.82z M702.65,407.05c0.36,7.77,2.21,17.67,8.56,22.48c2.98,2.25,7.36,2.18,9.47-1.14
	c1.04-1.65,0.84-3.97,0.65-5.82c-0.51-4.87-1.4-10.06-2.66-15.58c-0.7-3.05-1.86-5.35-3.49-6.88
	C709.07,394.36,702.32,399.74,702.65,407.05z"/>
<path class="st0" d="M9.45,357.28c1.19,30.85,10.82,60.06,28.9,87.63c7.51,11.46,16.7,22.78,27.57,33.95
	c12.91,13.27,26.27,24.92,40.1,34.94c17.28,12.53,34.82,23.49,52.63,32.89c60.99,32.19,128.85,52.38,197.82,62.41
	c19.45,2.83,37.37,4.67,53.76,5.52c23.05,1.19,45.18,1.48,66.37,0.85c22.18-0.66,45.43-2.71,69.74-6.16
	c14.73-2.09,29.15-4.74,43.28-7.95c39.31-8.93,76.69-21.69,109.91-42.88c4.25-2.71,8.23-5.53,11.94-8.44
	c0.11-0.09,0.23-0.13,0.37-0.12c0.24,0.01,0.4,0.26,0.31,0.49c-1.65,4.35-3.29,8.95-4.92,13.8c-3.72,11.04-9.08,21.76-14.35,31.93
	c-0.6,1.15-1.44,2.13-2.53,2.94c-41.5,30.68-93.1,47.49-144.38,56.62c-34.62,6.17-70.33,9.17-107.12,9
	c-25.51-0.11-49.46-1.41-71.84-3.89c-50.88-5.63-100.52-17.45-148.91-35.48c-23.98-8.93-47.22-19.59-69.71-31.97
	c-27.13-14.94-51.99-32.16-74.65-53.47c-15.02-14.12-28.97-29.34-40.59-46.06c-4.11-5.93-8.29-12.96-12.54-21.11
	c-11.3-21.68-17.15-44.16-17.56-67.45c-0.29-16.55,1.19-31.94,5.61-48.08C9.12,355.52,9.38,355.55,9.45,357.28z"/>
<path class="st3" d="M644.37,391.42c-0.2,2.59-0.49,5.12-0.86,7.61c-0.55,3.68-0.78,6.22-0.69,7.61c0.37,5.96,2.9,10.95,7.61,14.96
	c5.58,4.75,11.26,9.07,16.18,14.64c3.83,4.35,7.94,8.23,12.33,11.66c5.35,4.17,11.52,6.59,18.34,7.55
	c8.65,1.22,17.12,0.95,25.41-0.8c-4.43,5.55-10.09,9.88-16.97,13.01c-22.22,10.08-47.89-1.39-51.31-26.63
	c-0.14-1.02,0.11-2.04,1.04-2.61c1.34-0.81,1.23-1.34-0.32-1.58c-9.03-1.36-17.63-5.96-25.81-10.27c-0.52-0.28-0.76-0.89-0.58-1.45
	C632.63,413.33,637.84,402.09,644.37,391.42z"/>
<path class="st0" d="M711.21,429.53c-6.35-4.81-8.2-14.71-8.56-22.48c-0.33-7.31,6.42-12.69,12.53-6.94
	c1.63,1.53,2.79,3.83,3.49,6.88c1.26,5.52,2.15,10.71,2.66,15.58c0.19,1.85,0.39,4.17-0.65,5.82
	C718.57,431.71,714.19,431.78,711.21,429.53z"/>
<path class="st2" d="M192.23,444.45c7.33,5.33,13.23,10.19,17.68,14.6c9.87,9.77,16.64,17.15,20.31,22.16
	c2.17,2.95,3.98,5.25,5.43,6.89c0.91,1.03,1.63,2.04,2.15,3.05c0.71,1.37,1.62,2.54,2.73,3.53c0.67,0.6,0.55,0.89-0.34,0.87
	c-0.53-0.01-0.95-0.23-1.25-0.66c-0.18-0.27-0.48-0.43-0.81-0.43c-1.67-0.03-3.59,0-5.08-0.88c-0.9-0.53-2.03-0.38-3.11-0.65
	c-9.12-2.29-20.8-5.79-35.04-10.49c-13.36-4.42-25.72-9.61-37.09-15.58c4.92-3.09,9.66-5.97,14.21-8.66
	C175.59,456.09,182.33,451.5,192.23,444.45z"/>
<path class="st0" d="M0.44,487.44c-0.18-1.42-0.31-2.85-0.4-4.29c-0.17-2.67,0.2-2.75,1.11-0.23c8.62,23.95,20.59,45.76,36.17,65.3
	c28.13,35.26,64.22,63.83,104.15,85.61c63.22,34.48,133.69,56.1,204.76,64.56c6.65,0.79,13.27,1.54,19.88,2.25
	c21.31,2.28,44.02,2.81,65.41,2.64c33.02-0.27,65.45-3.32,97.3-9.13c36.1-6.59,71.66-17.2,104.67-33.47
	c15.54-7.67,28.81-16.32,39.8-25.97c1.19-1.04,1.34-0.91,0.46,0.4c-3.1,4.61-6.22,9.19-9.37,13.72
	c-9.42,13.57-21.26,26.94-35.52,40.1c-35.05,32.35-82.09,45.95-128.81,53.81c-36.63,6.17-74.21,8.39-112.74,6.68
	c-24.42-1.09-46.84-3.28-67.25-6.57c-38.86-6.27-75.91-15.82-111.14-28.64c-11.71-4.26-25.38-10.04-41-17.33
	c-18.16-8.48-35.71-18.18-52.65-29.09c-40.24-25.9-73.87-60-94.05-102.92c-9.03-19.21-15.09-38.75-18.18-58.6
	C2.13,500.39,1.26,494.11,0.44,487.44z"/>
<path class="st0" d="M219.57,774.57c-30.53-12.83-58.16-28.58-82.89-47.24c-13.92-10.51-27.75-22.62-41.5-36.35
	c-0.95-0.95-1.82-1.89-2.6-2.84c-0.1-0.11-0.09-0.22,0.02-0.32h0.01c0.1-0.09,0.2-0.09,0.3,0c2.09,1.92,4.26,3.67,6.53,5.25
	c48.31,33.61,102.79,57.01,160.59,71.38c6.24,1.55,12.47,2.95,18.68,4.2c50.05,10,100.57,13.05,151.55,9.16
	c40.33-3.08,79.03-12,116.1-26.76c3.65-1.45,7.19-3.05,10.63-4.78c0.13-0.06,0.23-0.03,0.3,0.09v0.01c0.07,0.12,0.05,0.22-0.06,0.3
	c-21.59,15.06-44.61,27-69.06,35.83c-21.43,7.73-44.45,13.47-69.05,17.22c-41.22,6.29-82.21,5.5-122.98-2.35
	C268.63,792.07,243.11,784.47,219.57,774.57z"/>
</svg>
