<?xml version="1.0" encoding="iso-8859-1"?>
<!-- Uploaded to: SVG Repo, www.svgrepo.com, Generator: SVG Repo Mixer Tools -->
<svg fill="#ffffff" height="800px" width="800px" version="1.1" id="Layer_1" xmlns="http://www.w3.org/2000/svg" xmlns:xlink="http://www.w3.org/1999/xlink" 
	 viewBox="0 0 512 512" xml:space="preserve">
<g>
	<g>
		<g>
			<path d="M224,442.667h-42.667V69.333H320v53.333c0,5.867,4.8,10.667,10.667,10.667c5.867,0,10.667-4.8,10.667-10.667v-64
				c0-5.867-4.8-10.667-10.667-10.667h-320C4.8,48,0,52.8,0,58.667v64c0,5.867,4.8,10.667,10.667,10.667
				c5.867,0,10.667-4.8,10.667-10.667V69.333H160v373.333h-42.667c-5.867,0-10.667,4.8-10.667,10.667
				c0,5.867,4.8,10.667,10.667,10.667H224c5.867,0,10.667-4.8,10.667-10.667C234.667,447.467,229.867,442.667,224,442.667z"/>
			<path d="M501.333,186.667H288c-5.867,0-10.667,4.8-10.667,10.667v53.333c0,5.867,4.8,10.667,10.667,10.667
				c5.867,0,10.667-4.8,10.667-10.667V208H384v234.667h-21.333c-5.867,0-10.667,4.8-10.667,10.667C352,459.2,356.8,464,362.667,464
				h64c5.867,0,10.667-4.8,10.667-10.667c0-5.867-4.8-10.667-10.667-10.667h-21.333V208h85.333v42.667
				c0,5.867,4.8,10.667,10.667,10.667c5.867,0,10.667-4.8,10.667-10.667v-53.333C512,191.467,507.2,186.667,501.333,186.667z"/>
		</g>
	</g>
</g>
</svg>