<?xml version="1.0" standalone="no"?>
<!DOCTYPE svg PUBLIC "-//W3C//DTD SVG 20010904//EN"
 "http://www.w3.org/TR/2001/REC-SVG-20010904/DTD/svg10.dtd">
<svg version="1.0" xmlns="http://www.w3.org/2000/svg"
 width="1280.000000pt" height="1252.000000pt" viewBox="0 0 1280.000000 1252.000000"
 preserveAspectRatio="xMidYMid meet">
<metadata>
Created by potrace 1.15, written by Peter Selinger 2001-2017
</metadata>
<g transform="translate(0.000000,1252.000000) scale(0.100000,-0.100000)"
fill="#000000" stroke="none">
<path d="M10429 12500 c-14 -11 -70 -35 -125 -55 -154 -56 -187 -83 -213 -180
-6 -23 -93 -185 -194 -362 -196 -342 -265 -484 -317 -653 -18 -58 -42 -125
-54 -150 -19 -41 -21 -63 -21 -225 0 -121 -5 -192 -13 -217 -11 -30 -34 -51
-125 -116 -241 -170 -376 -299 -474 -450 -67 -103 -158 -223 -318 -422 -192
-239 -252 -336 -371 -600 -178 -395 -230 -520 -269 -645 -59 -188 -130 -368
-191 -486 -56 -107 -162 -252 -206 -281 -13 -9 -57 -48 -98 -88 -263 -254
-540 -406 -945 -521 l-110 -31 -385 -5 c-373 -5 -689 3 -1030 28 l-155 12
-195 74 c-253 97 -450 168 -855 312 l-330 116 -205 -1 c-179 -1 -231 -5 -410
-33 -224 -35 -561 -114 -707 -166 -109 -39 -195 -85 -281 -152 -34 -26 -95
-68 -134 -93 -110 -69 -291 -255 -475 -490 -88 -113 -181 -230 -207 -260 -26
-30 -54 -66 -61 -80 -22 -42 -81 -227 -120 -375 -20 -77 -53 -203 -75 -280
-21 -77 -45 -171 -54 -210 -36 -161 -150 -312 -343 -459 -110 -83 -155 -138
-209 -251 -82 -173 -89 -208 -121 -560 -21 -239 -28 -376 -27 -540 l0 -220 53
-225 c58 -248 93 -350 149 -434 32 -50 40 -56 71 -56 47 0 96 35 162 117 29
36 76 81 104 98 82 53 245 255 360 446 251 416 399 839 411 1179 l6 145 -92
185 c-153 308 -169 390 -110 562 16 48 48 183 70 300 80 417 99 466 247 626
193 209 376 392 448 447 78 59 185 122 185 108 0 -5 -81 -139 -180 -297 -99
-159 -180 -292 -180 -296 0 -4 7 -25 16 -45 31 -75 35 -141 18 -314 -20 -204
-17 -224 74 -412 94 -192 141 -314 298 -764 72 -209 146 -418 163 -465 20 -56
31 -104 31 -140 0 -70 21 -243 65 -531 19 -125 35 -247 35 -272 0 -26 -24
-118 -60 -231 -80 -252 -81 -262 -37 -383 116 -319 135 -435 147 -873 11 -435
24 -567 110 -1100 53 -327 46 -300 80 -300 18 0 43 -12 65 -31 40 -35 58 -86
75 -213 14 -109 28 -150 61 -182 l28 -27 687 2 c378 1 691 4 695 7 4 2 10 17
14 34 9 42 -20 100 -105 205 -41 52 -90 126 -113 175 -43 91 -97 151 -305 338
-129 117 -148 147 -154 247 -6 95 -24 138 -131 317 -42 69 -82 141 -90 160 -8
18 -40 69 -72 113 -112 155 -172 321 -162 450 2 33 1 85 -3 115 -13 94 6 200
75 404 91 272 103 366 60 486 -25 69 -21 143 9 194 29 49 72 86 211 180 202
136 317 234 447 384 113 129 114 130 176 269 83 187 141 249 208 226 16 -6
108 -63 204 -126 128 -85 202 -142 275 -213 l100 -97 235 -59 c533 -135 698
-166 915 -175 297 -12 729 41 1214 149 120 26 145 29 151 17 5 -8 45 -66 90
-129 45 -63 96 -142 112 -175 41 -81 48 -165 19 -254 -12 -35 -21 -74 -21 -86
0 -12 -19 -89 -42 -171 -35 -125 -42 -164 -42 -244 -1 -88 1 -100 30 -155 67
-128 114 -306 135 -505 13 -121 7 -531 -10 -775 -8 -103 -7 -142 4 -185 11
-42 147 -632 172 -747 5 -20 10 -21 52 -16 80 9 103 -31 115 -197 6 -77 9 -87
34 -107 42 -35 90 -47 182 -46 47 0 306 1 577 1 316 1 499 4 511 11 29 15 45
64 37 108 -4 21 -31 90 -60 153 -30 63 -59 142 -64 175 -18 97 -35 112 -270
244 -116 65 -122 75 -133 214 -8 112 -26 186 -52 217 -7 8 -19 38 -25 65 -34
138 -107 260 -231 384 -43 44 -89 99 -101 122 -38 76 -51 184 -43 384 l6 180
63 190 c93 279 94 292 65 620 -24 280 -5 417 75 534 19 27 40 64 48 82 8 19
51 96 96 171 159 268 187 339 201 518 28 363 57 495 134 610 24 36 56 90 71
120 15 30 48 86 73 125 65 102 110 189 128 251 14 48 14 78 6 217 -21 335 11
634 148 1347 72 375 89 487 83 547 -6 58 9 107 35 120 10 4 121 8 247 9 215 1
241 3 400 33 217 41 377 50 497 27 49 -9 127 -24 175 -33 164 -30 297 -81 674
-256 l205 -96 175 14 c246 21 549 64 672 96 34 9 37 13 37 45 0 50 -23 98 -61
127 -19 13 -81 47 -139 74 -58 28 -130 70 -160 95 -30 26 -113 83 -185 128
-140 89 -238 160 -231 168 12 11 309 -148 499 -267 114 -72 217 -131 230 -131
40 1 105 37 121 69 22 41 20 73 -9 226 -14 71 -39 237 -56 369 -17 131 -42
291 -55 354 l-24 115 -63 66 c-34 36 -91 100 -124 142 -34 42 -86 98 -115 124
-50 45 -137 95 -166 95 -7 0 -39 13 -70 29 -113 57 -151 63 -482 70 -280 7
-310 9 -370 30 -144 50 -186 93 -246 249 -64 171 -90 219 -140 264 -26 24
-138 134 -248 245 -227 228 -269 259 -429 316 -17 6 -16 10 8 49 50 80 133
262 185 403 28 77 71 194 95 260 50 136 58 180 125 779 41 356 41 360 22 385
-18 25 -56 53 -132 99 -34 20 -35 20 -61 2z"/>
</g>
</svg>
